<mxfile host="app.diagrams.net" agent="Mozilla/5.0 (Windows NT 10.0; Win64; x64) AppleWebKit/537.36 (KHTML, like Gecko) Chrome/133.0.0.0 Safari/537.36 OPR/118.0.0.0 (Edition std-2)" version="27.0.5">
  <diagram name="PÃ¡gina-1" id="BEWyEyzdL7B-X0QcbU23">
    <mxGraphModel dx="1104" dy="595" grid="1" gridSize="10" guides="1" tooltips="1" connect="1" arrows="1" fold="1" page="1" pageScale="1" pageWidth="827" pageHeight="1169" math="0" shadow="0">
      <root>
        <mxCell id="0" />
        <mxCell id="1" parent="0" />
        <mxCell id="rAgVjnRfnA4i2VlKKuSD-63" value="" style="group" vertex="1" connectable="0" parent="1">
          <mxGeometry x="60" y="160" width="220" height="250" as="geometry" />
        </mxCell>
        <mxCell id="rAgVjnRfnA4i2VlKKuSD-1" value="" style="shape=cylinder3;whiteSpace=wrap;html=1;boundedLbl=1;backgroundOutline=1;size=15;fillColor=#1ba1e2;fontColor=#ffffff;strokeColor=#006EAF;" vertex="1" parent="rAgVjnRfnA4i2VlKKuSD-63">
          <mxGeometry x="73.33333333333334" width="73.33333333333334" height="203.12499999999994" as="geometry" />
        </mxCell>
        <mxCell id="rAgVjnRfnA4i2VlKKuSD-2" value="" style="shape=cylinder3;whiteSpace=wrap;html=1;boundedLbl=1;backgroundOutline=1;size=15;fillColor=#1ba1e2;fontColor=#ffffff;strokeColor=#006EAF;" vertex="1" parent="rAgVjnRfnA4i2VlKKuSD-63">
          <mxGeometry x="146.66666666666669" y="46.874999999999986" width="73.33333333333334" height="171.87499999999994" as="geometry" />
        </mxCell>
        <mxCell id="rAgVjnRfnA4i2VlKKuSD-3" value="" style="shape=cylinder3;whiteSpace=wrap;html=1;boundedLbl=1;backgroundOutline=1;size=15;fillColor=#1ba1e2;fontColor=#ffffff;strokeColor=#006EAF;" vertex="1" parent="rAgVjnRfnA4i2VlKKuSD-63">
          <mxGeometry y="46.874999999999986" width="73.33333333333334" height="171.87499999999994" as="geometry" />
        </mxCell>
        <mxCell id="rAgVjnRfnA4i2VlKKuSD-5" value="" style="shape=cylinder3;whiteSpace=wrap;html=1;boundedLbl=1;backgroundOutline=1;size=15;fillColor=#0050ef;fontColor=#ffffff;strokeColor=#001DBC;" vertex="1" parent="rAgVjnRfnA4i2VlKKuSD-63">
          <mxGeometry x="146.66666666666669" y="93.74999999999997" width="73.33333333333334" height="78.12499999999999" as="geometry" />
        </mxCell>
        <mxCell id="rAgVjnRfnA4i2VlKKuSD-6" value="" style="shape=cylinder3;whiteSpace=wrap;html=1;boundedLbl=1;backgroundOutline=1;size=15;fillColor=#1ba1e2;fontColor=#ffffff;strokeColor=#006EAF;" vertex="1" parent="rAgVjnRfnA4i2VlKKuSD-63">
          <mxGeometry x="146.66666666666669" y="171.87499999999994" width="73.33333333333334" height="78.12499999999999" as="geometry" />
        </mxCell>
        <mxCell id="rAgVjnRfnA4i2VlKKuSD-7" value="" style="shape=cylinder3;whiteSpace=wrap;html=1;boundedLbl=1;backgroundOutline=1;size=15;fillColor=#0050ef;fontColor=#ffffff;strokeColor=#001DBC;" vertex="1" parent="rAgVjnRfnA4i2VlKKuSD-63">
          <mxGeometry x="73.33333333333334" y="171.87499999999994" width="73.33333333333334" height="78.12499999999999" as="geometry" />
        </mxCell>
        <mxCell id="rAgVjnRfnA4i2VlKKuSD-8" value="" style="shape=cylinder3;whiteSpace=wrap;html=1;boundedLbl=1;backgroundOutline=1;size=15;fillColor=#1ba1e2;fontColor=#ffffff;strokeColor=#006EAF;" vertex="1" parent="rAgVjnRfnA4i2VlKKuSD-63">
          <mxGeometry x="73.33333333333334" y="109.375" width="73.33333333333334" height="78.12499999999999" as="geometry" />
        </mxCell>
        <mxCell id="rAgVjnRfnA4i2VlKKuSD-9" value="" style="shape=cylinder3;whiteSpace=wrap;html=1;boundedLbl=1;backgroundOutline=1;size=15;fillColor=#0050ef;fontColor=#ffffff;strokeColor=#001DBC;" vertex="1" parent="rAgVjnRfnA4i2VlKKuSD-63">
          <mxGeometry x="73.33333333333334" y="46.874999999999986" width="73.33333333333334" height="78.12499999999999" as="geometry" />
        </mxCell>
        <mxCell id="rAgVjnRfnA4i2VlKKuSD-10" value="" style="shape=cylinder3;whiteSpace=wrap;html=1;boundedLbl=1;backgroundOutline=1;size=15;fillColor=#1ba1e2;fontColor=#ffffff;strokeColor=#006EAF;" vertex="1" parent="rAgVjnRfnA4i2VlKKuSD-63">
          <mxGeometry y="171.87499999999994" width="73.33333333333334" height="78.12499999999999" as="geometry" />
        </mxCell>
        <mxCell id="rAgVjnRfnA4i2VlKKuSD-11" value="" style="shape=cylinder3;whiteSpace=wrap;html=1;boundedLbl=1;backgroundOutline=1;size=15;fillColor=#0050ef;fontColor=#ffffff;strokeColor=#001DBC;" vertex="1" parent="rAgVjnRfnA4i2VlKKuSD-63">
          <mxGeometry y="93.74999999999997" width="73.33333333333334" height="78.12499999999999" as="geometry" />
        </mxCell>
        <mxCell id="rAgVjnRfnA4i2VlKKuSD-128" value="" style="group" vertex="1" connectable="0" parent="1">
          <mxGeometry x="480" y="320" width="170" height="140" as="geometry" />
        </mxCell>
        <mxCell id="rAgVjnRfnA4i2VlKKuSD-129" value="" style="shape=cylinder3;whiteSpace=wrap;html=1;boundedLbl=1;backgroundOutline=1;size=15;fillColor=#1ba1e2;fontColor=#ffffff;strokeColor=#006EAF;" vertex="1" parent="rAgVjnRfnA4i2VlKKuSD-128">
          <mxGeometry x="56.66666666666668" width="56.66666666666668" height="113.74999999999999" as="geometry" />
        </mxCell>
        <mxCell id="rAgVjnRfnA4i2VlKKuSD-130" value="" style="shape=cylinder3;whiteSpace=wrap;html=1;boundedLbl=1;backgroundOutline=1;size=15;fillColor=#1ba1e2;fontColor=#ffffff;strokeColor=#006EAF;" vertex="1" parent="rAgVjnRfnA4i2VlKKuSD-128">
          <mxGeometry x="113.33333333333336" y="26.249999999999996" width="56.66666666666668" height="96.24999999999999" as="geometry" />
        </mxCell>
        <mxCell id="rAgVjnRfnA4i2VlKKuSD-131" value="" style="shape=cylinder3;whiteSpace=wrap;html=1;boundedLbl=1;backgroundOutline=1;size=15;fillColor=#1ba1e2;fontColor=#ffffff;strokeColor=#006EAF;" vertex="1" parent="rAgVjnRfnA4i2VlKKuSD-128">
          <mxGeometry y="26.249999999999996" width="56.66666666666668" height="96.24999999999999" as="geometry" />
        </mxCell>
        <mxCell id="rAgVjnRfnA4i2VlKKuSD-132" value="" style="shape=cylinder3;whiteSpace=wrap;html=1;boundedLbl=1;backgroundOutline=1;size=15;fillColor=#0050ef;fontColor=#ffffff;strokeColor=#001DBC;" vertex="1" parent="rAgVjnRfnA4i2VlKKuSD-128">
          <mxGeometry x="113.33333333333336" y="52.49999999999999" width="56.66666666666668" height="43.74999999999999" as="geometry" />
        </mxCell>
        <mxCell id="rAgVjnRfnA4i2VlKKuSD-133" value="" style="shape=cylinder3;whiteSpace=wrap;html=1;boundedLbl=1;backgroundOutline=1;size=15;fillColor=#1ba1e2;fontColor=#ffffff;strokeColor=#006EAF;" vertex="1" parent="rAgVjnRfnA4i2VlKKuSD-128">
          <mxGeometry x="113.33333333333336" y="96.24999999999999" width="56.66666666666668" height="43.74999999999999" as="geometry" />
        </mxCell>
        <mxCell id="rAgVjnRfnA4i2VlKKuSD-134" value="" style="shape=cylinder3;whiteSpace=wrap;html=1;boundedLbl=1;backgroundOutline=1;size=15;fillColor=#0050ef;fontColor=#ffffff;strokeColor=#001DBC;" vertex="1" parent="rAgVjnRfnA4i2VlKKuSD-128">
          <mxGeometry x="56.66666666666668" y="96.24999999999999" width="56.66666666666668" height="43.74999999999999" as="geometry" />
        </mxCell>
        <mxCell id="rAgVjnRfnA4i2VlKKuSD-135" value="" style="shape=cylinder3;whiteSpace=wrap;html=1;boundedLbl=1;backgroundOutline=1;size=15;fillColor=#1ba1e2;fontColor=#ffffff;strokeColor=#006EAF;" vertex="1" parent="rAgVjnRfnA4i2VlKKuSD-128">
          <mxGeometry x="56.66666666666668" y="61.25" width="56.66666666666668" height="43.74999999999999" as="geometry" />
        </mxCell>
        <mxCell id="rAgVjnRfnA4i2VlKKuSD-136" value="" style="shape=cylinder3;whiteSpace=wrap;html=1;boundedLbl=1;backgroundOutline=1;size=15;fillColor=#0050ef;fontColor=#ffffff;strokeColor=#001DBC;" vertex="1" parent="rAgVjnRfnA4i2VlKKuSD-128">
          <mxGeometry x="56.66666666666668" y="26.249999999999996" width="56.66666666666668" height="43.74999999999999" as="geometry" />
        </mxCell>
        <mxCell id="rAgVjnRfnA4i2VlKKuSD-137" value="" style="shape=cylinder3;whiteSpace=wrap;html=1;boundedLbl=1;backgroundOutline=1;size=15;fillColor=#1ba1e2;fontColor=#ffffff;strokeColor=#006EAF;" vertex="1" parent="rAgVjnRfnA4i2VlKKuSD-128">
          <mxGeometry y="96.24999999999999" width="56.66666666666668" height="43.74999999999999" as="geometry" />
        </mxCell>
        <mxCell id="rAgVjnRfnA4i2VlKKuSD-138" value="" style="shape=cylinder3;whiteSpace=wrap;html=1;boundedLbl=1;backgroundOutline=1;size=15;fillColor=#0050ef;fontColor=#ffffff;strokeColor=#001DBC;" vertex="1" parent="rAgVjnRfnA4i2VlKKuSD-128">
          <mxGeometry y="52.49999999999999" width="56.66666666666668" height="43.74999999999999" as="geometry" />
        </mxCell>
        <mxCell id="rAgVjnRfnA4i2VlKKuSD-152" value="" style="group" vertex="1" connectable="0" parent="1">
          <mxGeometry x="495" y="120" width="130" height="150" as="geometry" />
        </mxCell>
        <mxCell id="rAgVjnRfnA4i2VlKKuSD-153" value="" style="shape=cylinder3;whiteSpace=wrap;html=1;boundedLbl=1;backgroundOutline=1;size=15;fillColor=#1ba1e2;fontColor=#ffffff;strokeColor=#006EAF;" vertex="1" parent="rAgVjnRfnA4i2VlKKuSD-152">
          <mxGeometry x="43.333333333333336" width="43.333333333333336" height="121.87499999999999" as="geometry" />
        </mxCell>
        <mxCell id="rAgVjnRfnA4i2VlKKuSD-154" value="" style="shape=cylinder3;whiteSpace=wrap;html=1;boundedLbl=1;backgroundOutline=1;size=15;fillColor=#1ba1e2;fontColor=#ffffff;strokeColor=#006EAF;" vertex="1" parent="rAgVjnRfnA4i2VlKKuSD-152">
          <mxGeometry x="86.66666666666667" y="28.124999999999996" width="43.333333333333336" height="103.12499999999999" as="geometry" />
        </mxCell>
        <mxCell id="rAgVjnRfnA4i2VlKKuSD-155" value="" style="shape=cylinder3;whiteSpace=wrap;html=1;boundedLbl=1;backgroundOutline=1;size=15;fillColor=#1ba1e2;fontColor=#ffffff;strokeColor=#006EAF;" vertex="1" parent="rAgVjnRfnA4i2VlKKuSD-152">
          <mxGeometry y="28.124999999999996" width="43.333333333333336" height="103.12499999999999" as="geometry" />
        </mxCell>
        <mxCell id="rAgVjnRfnA4i2VlKKuSD-156" value="" style="shape=cylinder3;whiteSpace=wrap;html=1;boundedLbl=1;backgroundOutline=1;size=15;fillColor=#0050ef;fontColor=#ffffff;strokeColor=#001DBC;" vertex="1" parent="rAgVjnRfnA4i2VlKKuSD-152">
          <mxGeometry x="86.66666666666667" y="56.24999999999999" width="43.333333333333336" height="46.87499999999999" as="geometry" />
        </mxCell>
        <mxCell id="rAgVjnRfnA4i2VlKKuSD-157" value="" style="shape=cylinder3;whiteSpace=wrap;html=1;boundedLbl=1;backgroundOutline=1;size=15;fillColor=#1ba1e2;fontColor=#ffffff;strokeColor=#006EAF;" vertex="1" parent="rAgVjnRfnA4i2VlKKuSD-152">
          <mxGeometry x="86.66666666666667" y="103.12499999999999" width="43.333333333333336" height="46.87499999999999" as="geometry" />
        </mxCell>
        <mxCell id="rAgVjnRfnA4i2VlKKuSD-158" value="" style="shape=cylinder3;whiteSpace=wrap;html=1;boundedLbl=1;backgroundOutline=1;size=15;fillColor=#0050ef;fontColor=#ffffff;strokeColor=#001DBC;" vertex="1" parent="rAgVjnRfnA4i2VlKKuSD-152">
          <mxGeometry x="43.333333333333336" y="103.12499999999999" width="43.333333333333336" height="46.87499999999999" as="geometry" />
        </mxCell>
        <mxCell id="rAgVjnRfnA4i2VlKKuSD-159" value="" style="shape=cylinder3;whiteSpace=wrap;html=1;boundedLbl=1;backgroundOutline=1;size=15;fillColor=#1ba1e2;fontColor=#ffffff;strokeColor=#006EAF;" vertex="1" parent="rAgVjnRfnA4i2VlKKuSD-152">
          <mxGeometry x="43.333333333333336" y="65.625" width="43.333333333333336" height="46.87499999999999" as="geometry" />
        </mxCell>
        <mxCell id="rAgVjnRfnA4i2VlKKuSD-160" value="" style="shape=cylinder3;whiteSpace=wrap;html=1;boundedLbl=1;backgroundOutline=1;size=15;fillColor=#0050ef;fontColor=#ffffff;strokeColor=#001DBC;" vertex="1" parent="rAgVjnRfnA4i2VlKKuSD-152">
          <mxGeometry x="43.333333333333336" y="28.124999999999996" width="43.333333333333336" height="46.87499999999999" as="geometry" />
        </mxCell>
        <mxCell id="rAgVjnRfnA4i2VlKKuSD-161" value="" style="shape=cylinder3;whiteSpace=wrap;html=1;boundedLbl=1;backgroundOutline=1;size=15;fillColor=#1ba1e2;fontColor=#ffffff;strokeColor=#006EAF;" vertex="1" parent="rAgVjnRfnA4i2VlKKuSD-152">
          <mxGeometry y="103.12499999999999" width="43.333333333333336" height="46.87499999999999" as="geometry" />
        </mxCell>
        <mxCell id="rAgVjnRfnA4i2VlKKuSD-162" value="" style="shape=cylinder3;whiteSpace=wrap;html=1;boundedLbl=1;backgroundOutline=1;size=15;fillColor=#0050ef;fontColor=#ffffff;strokeColor=#001DBC;" vertex="1" parent="rAgVjnRfnA4i2VlKKuSD-152">
          <mxGeometry y="56.24999999999999" width="43.333333333333336" height="46.87499999999999" as="geometry" />
        </mxCell>
        <mxCell id="rAgVjnRfnA4i2VlKKuSD-163" value="" style="group" vertex="1" connectable="0" parent="1">
          <mxGeometry x="95" y="530" width="170" height="140" as="geometry" />
        </mxCell>
        <mxCell id="rAgVjnRfnA4i2VlKKuSD-164" value="" style="shape=cylinder3;whiteSpace=wrap;html=1;boundedLbl=1;backgroundOutline=1;size=15;fillColor=#1ba1e2;fontColor=#ffffff;strokeColor=#006EAF;" vertex="1" parent="rAgVjnRfnA4i2VlKKuSD-163">
          <mxGeometry x="56.66666666666668" width="56.66666666666668" height="113.74999999999999" as="geometry" />
        </mxCell>
        <mxCell id="rAgVjnRfnA4i2VlKKuSD-165" value="" style="shape=cylinder3;whiteSpace=wrap;html=1;boundedLbl=1;backgroundOutline=1;size=15;fillColor=#1ba1e2;fontColor=#ffffff;strokeColor=#006EAF;" vertex="1" parent="rAgVjnRfnA4i2VlKKuSD-163">
          <mxGeometry x="113.33333333333336" y="26.249999999999996" width="56.66666666666668" height="96.24999999999999" as="geometry" />
        </mxCell>
        <mxCell id="rAgVjnRfnA4i2VlKKuSD-166" value="" style="shape=cylinder3;whiteSpace=wrap;html=1;boundedLbl=1;backgroundOutline=1;size=15;fillColor=#1ba1e2;fontColor=#ffffff;strokeColor=#006EAF;" vertex="1" parent="rAgVjnRfnA4i2VlKKuSD-163">
          <mxGeometry y="26.249999999999996" width="56.66666666666668" height="96.24999999999999" as="geometry" />
        </mxCell>
        <mxCell id="rAgVjnRfnA4i2VlKKuSD-167" value="" style="shape=cylinder3;whiteSpace=wrap;html=1;boundedLbl=1;backgroundOutline=1;size=15;fillColor=#0050ef;fontColor=#ffffff;strokeColor=#001DBC;" vertex="1" parent="rAgVjnRfnA4i2VlKKuSD-163">
          <mxGeometry x="113.33333333333336" y="52.49999999999999" width="56.66666666666668" height="43.74999999999999" as="geometry" />
        </mxCell>
        <mxCell id="rAgVjnRfnA4i2VlKKuSD-168" value="" style="shape=cylinder3;whiteSpace=wrap;html=1;boundedLbl=1;backgroundOutline=1;size=15;fillColor=#1ba1e2;fontColor=#ffffff;strokeColor=#006EAF;" vertex="1" parent="rAgVjnRfnA4i2VlKKuSD-163">
          <mxGeometry x="113.33333333333336" y="96.24999999999999" width="56.66666666666668" height="43.74999999999999" as="geometry" />
        </mxCell>
        <mxCell id="rAgVjnRfnA4i2VlKKuSD-169" value="" style="shape=cylinder3;whiteSpace=wrap;html=1;boundedLbl=1;backgroundOutline=1;size=15;fillColor=#0050ef;fontColor=#ffffff;strokeColor=#001DBC;" vertex="1" parent="rAgVjnRfnA4i2VlKKuSD-163">
          <mxGeometry x="56.66666666666668" y="96.24999999999999" width="56.66666666666668" height="43.74999999999999" as="geometry" />
        </mxCell>
        <mxCell id="rAgVjnRfnA4i2VlKKuSD-170" value="" style="shape=cylinder3;whiteSpace=wrap;html=1;boundedLbl=1;backgroundOutline=1;size=15;fillColor=#1ba1e2;fontColor=#ffffff;strokeColor=#006EAF;" vertex="1" parent="rAgVjnRfnA4i2VlKKuSD-163">
          <mxGeometry x="56.66666666666668" y="61.25" width="56.66666666666668" height="43.74999999999999" as="geometry" />
        </mxCell>
        <mxCell id="rAgVjnRfnA4i2VlKKuSD-171" value="" style="shape=cylinder3;whiteSpace=wrap;html=1;boundedLbl=1;backgroundOutline=1;size=15;fillColor=#0050ef;fontColor=#ffffff;strokeColor=#001DBC;" vertex="1" parent="rAgVjnRfnA4i2VlKKuSD-163">
          <mxGeometry x="56.66666666666668" y="26.249999999999996" width="56.66666666666668" height="43.74999999999999" as="geometry" />
        </mxCell>
        <mxCell id="rAgVjnRfnA4i2VlKKuSD-172" value="" style="shape=cylinder3;whiteSpace=wrap;html=1;boundedLbl=1;backgroundOutline=1;size=15;fillColor=#1ba1e2;fontColor=#ffffff;strokeColor=#006EAF;" vertex="1" parent="rAgVjnRfnA4i2VlKKuSD-163">
          <mxGeometry y="96.24999999999999" width="56.66666666666668" height="43.74999999999999" as="geometry" />
        </mxCell>
        <mxCell id="rAgVjnRfnA4i2VlKKuSD-173" value="" style="shape=cylinder3;whiteSpace=wrap;html=1;boundedLbl=1;backgroundOutline=1;size=15;fillColor=#0050ef;fontColor=#ffffff;strokeColor=#001DBC;" vertex="1" parent="rAgVjnRfnA4i2VlKKuSD-163">
          <mxGeometry y="52.49999999999999" width="56.66666666666668" height="43.74999999999999" as="geometry" />
        </mxCell>
        <mxCell id="rAgVjnRfnA4i2VlKKuSD-174" value="" style="group" vertex="1" connectable="0" parent="1">
          <mxGeometry x="480" y="530" width="170" height="140" as="geometry" />
        </mxCell>
        <mxCell id="rAgVjnRfnA4i2VlKKuSD-175" value="" style="shape=cylinder3;whiteSpace=wrap;html=1;boundedLbl=1;backgroundOutline=1;size=15;fillColor=#1ba1e2;fontColor=#ffffff;strokeColor=#006EAF;" vertex="1" parent="rAgVjnRfnA4i2VlKKuSD-174">
          <mxGeometry x="56.66666666666668" width="56.66666666666668" height="113.74999999999999" as="geometry" />
        </mxCell>
        <mxCell id="rAgVjnRfnA4i2VlKKuSD-176" value="" style="shape=cylinder3;whiteSpace=wrap;html=1;boundedLbl=1;backgroundOutline=1;size=15;fillColor=#1ba1e2;fontColor=#ffffff;strokeColor=#006EAF;" vertex="1" parent="rAgVjnRfnA4i2VlKKuSD-174">
          <mxGeometry x="113.33333333333336" y="26.249999999999996" width="56.66666666666668" height="96.24999999999999" as="geometry" />
        </mxCell>
        <mxCell id="rAgVjnRfnA4i2VlKKuSD-177" value="" style="shape=cylinder3;whiteSpace=wrap;html=1;boundedLbl=1;backgroundOutline=1;size=15;fillColor=#1ba1e2;fontColor=#ffffff;strokeColor=#006EAF;" vertex="1" parent="rAgVjnRfnA4i2VlKKuSD-174">
          <mxGeometry y="26.249999999999996" width="56.66666666666668" height="96.24999999999999" as="geometry" />
        </mxCell>
        <mxCell id="rAgVjnRfnA4i2VlKKuSD-178" value="" style="shape=cylinder3;whiteSpace=wrap;html=1;boundedLbl=1;backgroundOutline=1;size=15;fillColor=#0050ef;fontColor=#ffffff;strokeColor=#001DBC;" vertex="1" parent="rAgVjnRfnA4i2VlKKuSD-174">
          <mxGeometry x="113.33333333333336" y="52.49999999999999" width="56.66666666666668" height="43.74999999999999" as="geometry" />
        </mxCell>
        <mxCell id="rAgVjnRfnA4i2VlKKuSD-179" value="" style="shape=cylinder3;whiteSpace=wrap;html=1;boundedLbl=1;backgroundOutline=1;size=15;fillColor=#1ba1e2;fontColor=#ffffff;strokeColor=#006EAF;" vertex="1" parent="rAgVjnRfnA4i2VlKKuSD-174">
          <mxGeometry x="113.33333333333336" y="96.24999999999999" width="56.66666666666668" height="43.74999999999999" as="geometry" />
        </mxCell>
        <mxCell id="rAgVjnRfnA4i2VlKKuSD-180" value="" style="shape=cylinder3;whiteSpace=wrap;html=1;boundedLbl=1;backgroundOutline=1;size=15;fillColor=#0050ef;fontColor=#ffffff;strokeColor=#001DBC;" vertex="1" parent="rAgVjnRfnA4i2VlKKuSD-174">
          <mxGeometry x="56.66666666666668" y="96.24999999999999" width="56.66666666666668" height="43.74999999999999" as="geometry" />
        </mxCell>
        <mxCell id="rAgVjnRfnA4i2VlKKuSD-181" value="" style="shape=cylinder3;whiteSpace=wrap;html=1;boundedLbl=1;backgroundOutline=1;size=15;fillColor=#1ba1e2;fontColor=#ffffff;strokeColor=#006EAF;" vertex="1" parent="rAgVjnRfnA4i2VlKKuSD-174">
          <mxGeometry x="56.66666666666668" y="61.25" width="56.66666666666668" height="43.74999999999999" as="geometry" />
        </mxCell>
        <mxCell id="rAgVjnRfnA4i2VlKKuSD-182" value="" style="shape=cylinder3;whiteSpace=wrap;html=1;boundedLbl=1;backgroundOutline=1;size=15;fillColor=#0050ef;fontColor=#ffffff;strokeColor=#001DBC;" vertex="1" parent="rAgVjnRfnA4i2VlKKuSD-174">
          <mxGeometry x="56.66666666666668" y="26.249999999999996" width="56.66666666666668" height="43.74999999999999" as="geometry" />
        </mxCell>
        <mxCell id="rAgVjnRfnA4i2VlKKuSD-183" value="" style="shape=cylinder3;whiteSpace=wrap;html=1;boundedLbl=1;backgroundOutline=1;size=15;fillColor=#1ba1e2;fontColor=#ffffff;strokeColor=#006EAF;" vertex="1" parent="rAgVjnRfnA4i2VlKKuSD-174">
          <mxGeometry y="96.24999999999999" width="56.66666666666668" height="43.74999999999999" as="geometry" />
        </mxCell>
        <mxCell id="rAgVjnRfnA4i2VlKKuSD-184" value="" style="shape=cylinder3;whiteSpace=wrap;html=1;boundedLbl=1;backgroundOutline=1;size=15;fillColor=#0050ef;fontColor=#ffffff;strokeColor=#001DBC;" vertex="1" parent="rAgVjnRfnA4i2VlKKuSD-174">
          <mxGeometry y="52.49999999999999" width="56.66666666666668" height="43.74999999999999" as="geometry" />
        </mxCell>
        <mxCell id="rAgVjnRfnA4i2VlKKuSD-187" value="" style="shape=flexArrow;endArrow=classic;html=1;rounded=0;fillColor=light-dark(#F5F5F5,#FFFFFF);strokeColor=#666666;endWidth=94.16666666666667;endSize=17.775;width=42.5;" edge="1" parent="1">
          <mxGeometry width="50" height="50" relative="1" as="geometry">
            <mxPoint x="300" y="320" as="sourcePoint" />
            <mxPoint x="450" y="320" as="targetPoint" />
            <Array as="points">
              <mxPoint x="350" y="320" />
              <mxPoint x="390" y="320" />
            </Array>
          </mxGeometry>
        </mxCell>
        <mxCell id="rAgVjnRfnA4i2VlKKuSD-188" value="" style="shape=flexArrow;endArrow=classic;html=1;rounded=0;fillColor=light-dark(#F5F5F5,#FFFFFF);strokeColor=#666666;endWidth=94.16666666666667;endSize=17.775;width=42.5;" edge="1" parent="1">
          <mxGeometry width="50" height="50" relative="1" as="geometry">
            <mxPoint x="300" y="610" as="sourcePoint" />
            <mxPoint x="450" y="610" as="targetPoint" />
            <Array as="points">
              <mxPoint x="350" y="610" />
              <mxPoint x="390" y="610" />
            </Array>
          </mxGeometry>
        </mxCell>
        <mxCell id="rAgVjnRfnA4i2VlKKuSD-189" value="&lt;div&gt;Dividen los datos para&lt;/div&gt;&lt;div&gt;obtener el conjunto de test&lt;/div&gt;&lt;div&gt;- hold-out&lt;/div&gt;" style="text;html=1;align=center;verticalAlign=middle;resizable=0;points=[];autosize=1;strokeColor=none;fillColor=none;" vertex="1" parent="1">
          <mxGeometry x="300" y="190" width="160" height="60" as="geometry" />
        </mxCell>
        <mxCell id="rAgVjnRfnA4i2VlKKuSD-190" value="&lt;div&gt;Conjuntos de entrenamiento&lt;/div&gt;&lt;div&gt;Training set&lt;/div&gt;" style="text;html=1;align=center;verticalAlign=middle;resizable=0;points=[];autosize=1;strokeColor=none;fillColor=none;" vertex="1" parent="1">
          <mxGeometry x="85" y="420" width="170" height="40" as="geometry" />
        </mxCell>
        <mxCell id="rAgVjnRfnA4i2VlKKuSD-191" value="Conjunto de validaciÃ³n" style="text;html=1;align=center;verticalAlign=middle;resizable=0;points=[];autosize=1;strokeColor=none;fillColor=none;" vertex="1" parent="1">
          <mxGeometry x="110" y="690" width="140" height="30" as="geometry" />
        </mxCell>
        <mxCell id="rAgVjnRfnA4i2VlKKuSD-192" value="Conjunto de validaciÃ³n" style="text;html=1;align=center;verticalAlign=middle;resizable=0;points=[];autosize=1;strokeColor=none;fillColor=none;" vertex="1" parent="1">
          <mxGeometry x="500" y="690" width="140" height="30" as="geometry" />
        </mxCell>
        <mxCell id="rAgVjnRfnA4i2VlKKuSD-193" value="Conjunto de entrenamiento&lt;span style=&quot;color: rgba(0, 0, 0, 0); font-family: monospace; font-size: 0px; text-align: start;&quot;&gt;%3CmxGraphModel%3E%3Croot%3E%3CmxCell%20id%3D%220%22%2F%3E%3CmxCell%20id%3D%221%22%20parent%3D%220%22%2F%3E%3CmxCell%20id%3D%222%22%20value%3D%22Conjunto%20de%20validaci%C3%B3n%22%20style%3D%22text%3Bhtml%3D1%3Balign%3Dcenter%3BverticalAlign%3Dmiddle%3Bresizable%3D0%3Bpoints%3D%5B%5D%3Bautosize%3D1%3BstrokeColor%3Dnone%3BfillColor%3Dnone%3B%22%20vertex%3D%221%22%20parent%3D%221%22%3E%3CmxGeometry%20x%3D%22120%22%20y%3D%22698%22%20width%3D%22140%22%20height%3D%2230%22%20as%3D%22geometry%22%2F%3E%3C%2FmxCell%3E%3C%2Froot%3E%3C%2FmxGraphModel%3E&lt;/span&gt;" style="text;html=1;align=center;verticalAlign=middle;resizable=0;points=[];autosize=1;strokeColor=none;fillColor=none;" vertex="1" parent="1">
          <mxGeometry x="480" y="480" width="170" height="30" as="geometry" />
        </mxCell>
        <mxCell id="rAgVjnRfnA4i2VlKKuSD-194" value="Conjunto de test" style="text;html=1;align=center;verticalAlign=middle;resizable=0;points=[];autosize=1;strokeColor=none;fillColor=none;" vertex="1" parent="1">
          <mxGeometry x="505" y="280" width="110" height="30" as="geometry" />
        </mxCell>
        <mxCell id="rAgVjnRfnA4i2VlKKuSD-195" value="&lt;font style=&quot;font-size: 36px;&quot;&gt;20%&lt;/font&gt;" style="text;html=1;align=center;verticalAlign=middle;resizable=0;points=[];autosize=1;strokeColor=none;fillColor=none;" vertex="1" parent="1">
          <mxGeometry x="640" y="190" width="100" height="60" as="geometry" />
        </mxCell>
        <mxCell id="rAgVjnRfnA4i2VlKKuSD-196" value="&lt;font style=&quot;font-size: 36px;&quot;&gt;80%&lt;/font&gt;" style="text;html=1;align=center;verticalAlign=middle;resizable=0;points=[];autosize=1;strokeColor=none;fillColor=none;" vertex="1" parent="1">
          <mxGeometry x="650" y="360" width="100" height="60" as="geometry" />
        </mxCell>
      </root>
    </mxGraphModel>
  </diagram>
</mxfile>
